<?xml version="1.0" standalone="no"?>
<!DOCTYPE svg PUBLIC "-//W3C//DTD SVG 20010904//EN"
 "http://www.w3.org/TR/2001/REC-SVG-20010904/DTD/svg10.dtd">
<svg version="1.0" xmlns="http://www.w3.org/2000/svg"
 width="128.000000pt" height="128.000000pt" viewBox="0 0 128.000000 128.000000"
 preserveAspectRatio="xMidYMid meet">
<metadata>
Created by potrace 1.11, written by Peter Selinger 2001-2013
</metadata>
<g transform="translate(0.000000,128.000000) scale(0.100000,-0.100000)"
fill="#000000" stroke="none">
<path d="M558 1240 c-69 -37 -98 -102 -98 -223 0 -123 -30 -172 -125 -202 -19
-6 -19 -7 -2 -17 32 -18 93 18 131 77 15 23 21 56 26 140 7 124 22 164 73 195
37 23 94 26 140 6 39 -16 61 -41 74 -81 11 -33 26 -37 31 -7 4 27 -39 84 -83
109 -50 28 -117 29 -167 3z"/>
<path d="M255 1117 c-52 -21 -76 -41 -97 -81 -41 -79 -19 -157 66 -239 93 -90
117 -157 81 -227 -14 -27 -14 -30 -1 -30 22 0 46 52 46 99 0 52 -29 105 -89
161 -71 68 -93 104 -93 155 -2 101 102 171 199 134 15 -5 31 -16 35 -22 5 -8
8 -4 8 10 0 12 -9 27 -21 33 -31 17 -100 20 -134 7z"/>
<path d="M891 1107 c-24 -11 -65 -42 -90 -68 -25 -25 -62 -56 -81 -68 -42 -25
-108 -28 -151 -5 -29 14 -31 14 -27 -3 8 -44 109 -57 181 -23 23 11 65 43 92
71 85 88 153 108 225 68 68 -38 94 -118 59 -184 -19 -34 -19 -35 0 -35 45 0
58 113 20 179 -45 80 -142 109 -228 68z"/>
<path d="M804 936 c-15 -38 26 -100 87 -132 24 -12 64 -18 139 -21 121 -5 163
-20 197 -72 27 -40 29 -90 6 -138 -17 -37 -65 -73 -95 -73 -10 0 -18 -5 -18
-10 0 -22 31 -21 71 2 88 48 114 165 55 243 -43 56 -76 68 -209 75 -96 5 -123
10 -145 27 -32 24 -74 82 -67 94 3 4 1 10 -5 14 -6 3 -13 -1 -16 -9z"/>
<path d="M104 794 c-95 -50 -127 -139 -83 -231 34 -70 87 -95 210 -99 55 -1
115 -8 135 -14 35 -12 79 -60 85 -93 5 -25 23 -26 27 -2 5 33 -39 88 -88 112
-35 17 -67 23 -151 26 -123 4 -165 23 -194 84 -34 72 -4 151 73 188 23 11 41
23 42 26 0 15 -30 16 -56 3z"/>
<path d="M963 732 c-17 -11 -33 -58 -33 -98 0 -48 29 -100 90 -159 61 -60 87
-100 91 -140 6 -73 -23 -120 -91 -148 -40 -17 -78 -15 -120 7 -28 13 -30 13
-30 -4 0 -26 51 -43 114 -38 94 8 156 72 156 163 0 60 -26 108 -95 175 -31 30
-63 67 -71 82 -18 35 -18 108 1 132 24 31 17 46 -12 28z"/>
<path d="M900 474 c-80 -34 -101 -75 -110 -221 -6 -101 -10 -116 -34 -148 -32
-41 -54 -54 -103 -61 -66 -8 -153 54 -153 110 0 9 -7 16 -15 16 -30 0 -12 -60
31 -104 70 -70 174 -69 245 3 44 44 59 91 59 191 0 51 6 88 19 115 21 48 36
61 86 78 29 10 34 15 23 24 -10 8 -22 8 -48 -3z"/>
<path d="M155 394 c-22 -34 -23 -110 -2 -151 39 -74 137 -111 222 -83 20 7 67
40 103 75 100 93 146 110 217 81 45 -19 45 -19 45 -3 0 33 -94 53 -157 34 -19
-6 -69 -42 -111 -80 -84 -76 -108 -89 -164 -89 -108 1 -174 113 -124 210 14
26 14 32 2 32 -7 0 -21 -12 -31 -26z"/>
</g>
</svg>
