<svg version="1" xmlns="http://www.w3.org/2000/svg" width="170.667" height="170.667" viewBox="0 0 128.000000 128.000000"><path d="M55.8 4C48.9 7.7 46 14.2 46 26.3c0 12.3-3 17.2-12.5 20.2-1.9.6-1.9.7-.2 1.7 3.2 1.8 9.3-1.8 13.1-7.7 1.5-2.3 2.1-5.6 2.6-14 .7-12.4 2.2-16.4 7.3-19.5 3.7-2.3 9.4-2.6 14-.6 3.9 1.6 6.1 4.1 7.4 8.1 1.1 3.3 2.6 3.7 3.1.7.4-2.7-3.9-8.4-8.3-10.9-5-2.8-11.7-2.9-16.7-.3z"/><path d="M25.5 16.3c-5.2 2.1-7.6 4.1-9.7 8.1-4.1 7.9-1.9 15.7 6.6 23.9 9.3 9 11.7 15.7 8.1 22.7-1.4 2.7-1.4 3-.1 3 2.2 0 4.6-5.2 4.6-9.9 0-5.2-2.9-10.5-8.9-16.1-7.1-6.8-9.3-10.4-9.3-15.5-.2-10.1 10.2-17.1 19.9-13.4 1.5.5 3.1 1.6 3.5 2.2.5.8.8.4.8-1 0-1.2-.9-2.7-2.1-3.3-3.1-1.7-10-2-13.4-.7zm63.6 1c-2.4 1.1-6.5 4.2-9 6.8-2.5 2.5-6.2 5.6-8.1 6.8-4.2 2.5-10.8 2.8-15.1.5-2.9-1.4-3.1-1.4-2.7.3.8 4.4 10.9 5.7 18.1 2.3 2.3-1.1 6.5-4.3 9.2-7.1 8.5-8.8 15.3-10.8 22.5-6.8 6.8 3.8 9.4 11.8 5.9 18.4-1.9 3.4-1.9 3.5 0 3.5 4.5 0 5.8-11.3 2-17.9-4.5-8-14.2-10.9-22.8-6.8z"/><path d="M80.4 34.4c-1.5 3.8 2.6 10 8.7 13.2 2.4 1.2 6.4 1.8 13.9 2.1 12.1.5 16.3 2 19.7 7.2 2.7 4 2.9 9 .6 13.8-1.7 3.7-6.5 7.3-9.5 7.3-1 0-1.8.5-1.8 1 0 2.2 3.1 2.1 7.1-.2 8.8-4.8 11.4-16.5 5.5-24.3-4.3-5.6-7.6-6.8-20.9-7.5-9.6-.5-12.3-1-14.5-2.7-3.2-2.4-7.4-8.2-6.7-9.4.3-.4.1-1-.5-1.4-.6-.3-1.3.1-1.6.9zm-70 14.2c-9.5 5-12.7 13.9-8.3 23.1 3.4 7 8.7 9.5 21 9.9 5.5.1 11.5.8 13.5 1.4 3.5 1.2 7.9 6 8.5 9.3.5 2.5 2.3 2.6 2.7.2.5-3.3-3.9-8.8-8.8-11.2-3.5-1.7-6.7-2.3-15.1-2.6-12.3-.4-16.5-2.3-19.4-8.4-3.4-7.2-.4-15.1 7.3-18.8 2.3-1.1 4.1-2.3 4.2-2.6 0-1.5-3-1.6-5.6-.3z"/><path d="M96.3 54.8c-1.7 1.1-3.3 5.8-3.3 9.8 0 4.8 2.9 10 9 15.9 6.1 6 8.7 10 9.1 14 .6 7.3-2.3 12-9.1 14.8-4 1.7-7.8 1.5-12-.7-2.8-1.3-3-1.3-3 .4 0 2.6 5.1 4.3 11.4 3.8 9.4-.8 15.6-7.2 15.6-16.3 0-6-2.6-10.8-9.5-17.5-3.1-3-6.3-6.7-7.1-8.2-1.8-3.5-1.8-10.8.1-13.2 2.4-3.1 1.7-4.6-1.2-2.8z"/><path d="M90 80.6c-8 3.4-10.1 7.5-11 22.1-.6 10.1-1 11.6-3.4 14.8-3.2 4.1-5.4 5.4-10.3 6.1-6.6.8-15.3-5.4-15.3-11 0-.9-.7-1.6-1.5-1.6-3 0-1.2 6 3.1 10.4 7 7 17.4 6.9 24.5-.3 4.4-4.4 5.9-9.1 5.9-19.1 0-5.1.6-8.8 1.9-11.5 2.1-4.8 3.6-6.1 8.6-7.8 2.9-1 3.4-1.5 2.3-2.4-1-.8-2.2-.8-4.8.3z"/><path d="M15.5 88.6c-2.2 3.4-2.3 11-.2 15.1 3.9 7.4 13.7 11.1 22.2 8.3 2-.7 6.7-4 10.3-7.5 10-9.3 14.6-11 21.7-8.1 4.5 1.9 4.5 1.9 4.5.3 0-3.3-9.4-5.3-15.7-3.4-1.9.6-6.9 4.2-11.1 8-8.4 7.6-10.8 8.9-16.4 8.9-10.8-.1-17.4-11.3-12.4-21 1.4-2.6 1.4-3.2.2-3.2-.7 0-2.1 1.2-3.1 2.6z"/></svg>